# Blender v2.82 (sub 7) OBJ File: 'TutorialLevel.blend'
# www.blender.org
mtllib W_03.mtl
o W_03_Cube.024
v -1.490995 23.153255 11.706521
v -1.490995 39.236446 11.706521
v -1.490995 23.153255 10.706521
v -1.490995 39.236446 10.706521
v 12.217367 23.153255 11.706521
v 12.217365 39.236446 11.706521
v 12.217367 23.153255 10.706521
v 12.217365 39.236446 10.706521
v -0.490750 23.153255 13.633332
v -0.490750 39.236443 13.633332
v -1.490750 23.153255 13.633332
v -1.490750 39.236443 13.633332
v -0.490750 23.153255 11.706124
v -0.490750 39.236443 11.706124
v -1.490750 23.153255 11.706124
v -1.490750 39.236443 11.706124
vt 0.375000 0.000000
vt 0.625000 0.000000
vt 0.625000 0.250000
vt 0.375000 0.250000
vt 0.625000 0.500000
vt 0.375000 0.500000
vt 0.625000 0.750000
vt 0.375000 0.750000
vt 0.625000 1.000000
vt 0.375000 1.000000
vt 0.125000 0.500000
vt 0.125000 0.750000
vt 0.875000 0.500000
vt 0.875000 0.750000
vt 0.375000 0.000000
vt 0.625000 0.000000
vt 0.625000 0.250000
vt 0.375000 0.250000
vt 0.625000 0.500000
vt 0.375000 0.500000
vt 0.625000 0.750000
vt 0.375000 0.750000
vt 0.625000 1.000000
vt 0.375000 1.000000
vt 0.125000 0.500000
vt 0.125000 0.750000
vt 0.875000 0.500000
vt 0.875000 0.750000
vn -1.0000 0.0000 0.0000
vn 0.0000 0.0000 -1.0000
vn 1.0000 0.0000 0.0000
vn 0.0000 0.0000 1.0000
vn 0.0000 -1.0000 0.0000
vn 0.0000 1.0000 0.0000
usemtl None
s off
f 1/1/1 2/2/1 4/3/1 3/4/1
f 3/4/2 4/3/2 8/5/2 7/6/2
f 7/6/3 8/5/3 6/7/3 5/8/3
f 5/8/4 6/7/4 2/9/4 1/10/4
f 3/11/5 7/6/5 5/8/5 1/12/5
f 8/5/6 4/13/6 2/14/6 6/7/6
f 9/15/4 10/16/4 12/17/4 11/18/4
f 11/18/1 12/17/1 16/19/1 15/20/1
f 15/20/2 16/19/2 14/21/2 13/22/2
f 13/22/3 14/21/3 10/23/3 9/24/3
f 11/25/5 15/20/5 13/22/5 9/26/5
f 16/19/6 12/27/6 10/28/6 14/21/6
