# Blender v2.82 (sub 7) OBJ File: 'TutorialLevel.blend'
# www.blender.org
mtllib W_06.mtl
o W_06_Cube.036
v -13.125826 18.093403 23.076252
v -13.125826 39.236446 23.076252
v -14.125826 18.093403 23.076252
v -14.125826 39.236446 23.076252
v -13.125828 18.093403 18.088585
v -13.125828 39.236446 18.088585
v -14.125828 18.093403 18.088585
v -14.125828 39.236446 18.088585
v -13.125826 18.093403 16.650864
v -13.125826 39.236443 16.650864
v -14.125826 18.093403 16.650867
v -14.125826 39.236443 16.650867
v -13.125828 18.093403 13.706206
v -13.125828 39.236443 13.706206
v -14.125828 18.093403 13.706208
v -14.125828 39.236443 13.706208
v -13.125826 31.262072 18.088245
v -13.125826 39.236439 18.088245
v -14.125826 31.262072 18.088245
v -14.125826 39.236439 18.088245
v -13.125828 31.262072 16.650513
v -13.125828 39.236439 16.650513
v -14.125828 31.262072 16.650513
v -14.125828 39.236439 16.650513
v -13.125818 33.354473 13.706017
v -13.125818 39.236446 13.706017
v -14.125818 33.354473 13.706017
v -14.125818 39.236446 13.706017
v -13.125835 33.354473 -6.307222
v -13.125835 39.236446 -6.307222
v -14.125835 33.354473 -6.307222
v -14.125835 39.236446 -6.307222
v -13.125825 18.093403 -6.304538
v -13.125825 39.236443 -6.304538
v -14.125825 18.093403 -6.304538
v -14.125825 39.236443 -6.304538
v -13.125829 18.093403 -10.747140
v -13.125829 39.236443 -10.747140
v -14.125828 18.093403 -10.747139
v -14.125828 39.236443 -10.747139
v -13.125825 18.093403 -15.440783
v -13.125825 39.236443 -15.440783
v -14.125825 18.093403 -15.440781
v -14.125825 39.236443 -15.440781
v -13.125829 18.093403 -20.018047
v -13.125829 39.236443 -20.018047
v -14.125828 18.093403 -20.018047
v -14.125828 39.236443 -20.018047
v -13.125825 21.643236 -10.747112
v -13.125825 39.236443 -10.747112
v -14.125825 21.643236 -10.747111
v -14.125825 39.236443 -10.747111
v -13.125829 21.643236 -15.442825
v -13.125829 39.236443 -15.442825
v -14.125828 21.643236 -15.442823
v -14.125828 39.236443 -15.442823
v -13.125826 18.093403 18.088245
v -13.125826 26.866350 18.088245
v -14.125826 18.093403 18.088245
v -14.125826 26.866350 18.088245
v -13.125828 18.093403 16.650513
v -13.125828 26.866350 16.650513
v -14.125828 18.093403 16.650513
v -14.125828 26.866350 16.650513
v -13.125818 18.093718 13.706017
v -13.125818 28.079561 13.706017
v -14.125818 18.093718 13.706017
v -14.125818 28.079561 13.706017
v -13.125835 18.093718 -6.307222
v -13.125835 28.079561 -6.307222
v -14.125835 18.093718 -6.307222
v -14.125835 28.079561 -6.307222
vt 0.375000 0.000000
vt 0.625000 0.000000
vt 0.625000 0.250000
vt 0.375000 0.250000
vt 0.625000 0.500000
vt 0.375000 0.500000
vt 0.625000 0.750000
vt 0.375000 0.750000
vt 0.625000 1.000000
vt 0.375000 1.000000
vt 0.125000 0.500000
vt 0.125000 0.750000
vt 0.875000 0.500000
vt 0.875000 0.750000
vt 0.375000 0.000000
vt 0.625000 0.000000
vt 0.625000 0.250000
vt 0.375000 0.250000
vt 0.625000 0.500000
vt 0.375000 0.500000
vt 0.625000 0.750000
vt 0.375000 0.750000
vt 0.625000 1.000000
vt 0.375000 1.000000
vt 0.125000 0.500000
vt 0.125000 0.750000
vt 0.875000 0.500000
vt 0.875000 0.750000
vt 0.375000 0.000000
vt 0.625000 0.000000
vt 0.625000 0.250000
vt 0.375000 0.250000
vt 0.625000 0.500000
vt 0.375000 0.500000
vt 0.625000 0.750000
vt 0.375000 0.750000
vt 0.625000 1.000000
vt 0.375000 1.000000
vt 0.125000 0.500000
vt 0.125000 0.750000
vt 0.875000 0.500000
vt 0.875000 0.750000
vt 0.375000 0.000000
vt 0.625000 0.000000
vt 0.625000 0.250000
vt 0.375000 0.250000
vt 0.625000 0.500000
vt 0.375000 0.500000
vt 0.625000 0.750000
vt 0.375000 0.750000
vt 0.625000 1.000000
vt 0.375000 1.000000
vt 0.125000 0.500000
vt 0.125000 0.750000
vt 0.875000 0.500000
vt 0.875000 0.750000
vt 0.375000 0.000000
vt 0.625000 0.000000
vt 0.625000 0.250000
vt 0.375000 0.250000
vt 0.625000 0.500000
vt 0.375000 0.500000
vt 0.625000 0.750000
vt 0.375000 0.750000
vt 0.625000 1.000000
vt 0.375000 1.000000
vt 0.125000 0.500000
vt 0.125000 0.750000
vt 0.875000 0.500000
vt 0.875000 0.750000
vt 0.375000 0.000000
vt 0.625000 0.000000
vt 0.625000 0.250000
vt 0.375000 0.250000
vt 0.625000 0.500000
vt 0.375000 0.500000
vt 0.625000 0.750000
vt 0.375000 0.750000
vt 0.625000 1.000000
vt 0.375000 1.000000
vt 0.125000 0.500000
vt 0.125000 0.750000
vt 0.875000 0.500000
vt 0.875000 0.750000
vt 0.375000 0.000000
vt 0.625000 0.000000
vt 0.625000 0.250000
vt 0.375000 0.250000
vt 0.625000 0.500000
vt 0.375000 0.500000
vt 0.625000 0.750000
vt 0.375000 0.750000
vt 0.625000 1.000000
vt 0.375000 1.000000
vt 0.125000 0.500000
vt 0.125000 0.750000
vt 0.875000 0.500000
vt 0.875000 0.750000
vt 0.375000 0.000000
vt 0.625000 0.000000
vt 0.625000 0.250000
vt 0.375000 0.250000
vt 0.625000 0.500000
vt 0.375000 0.500000
vt 0.625000 0.750000
vt 0.375000 0.750000
vt 0.625000 1.000000
vt 0.375000 1.000000
vt 0.125000 0.500000
vt 0.125000 0.750000
vt 0.875000 0.500000
vt 0.875000 0.750000
vt 0.375000 0.000000
vt 0.625000 0.000000
vt 0.625000 0.250000
vt 0.375000 0.250000
vt 0.625000 0.500000
vt 0.375000 0.500000
vt 0.625000 0.750000
vt 0.375000 0.750000
vt 0.625000 1.000000
vt 0.375000 1.000000
vt 0.125000 0.500000
vt 0.125000 0.750000
vt 0.875000 0.500000
vt 0.875000 0.750000
vn 0.0000 0.0000 1.0000
vn -1.0000 0.0000 0.0000
vn 0.0000 0.0000 -1.0000
vn 1.0000 0.0000 -0.0000
vn 0.0000 -1.0000 -0.0000
vn 0.0000 1.0000 -0.0000
usemtl None
s off
f 1/1/1 2/2/1 4/3/1 3/4/1
f 3/4/2 4/3/2 8/5/2 7/6/2
f 7/6/3 8/5/3 6/7/3 5/8/3
f 5/8/4 6/7/4 2/9/4 1/10/4
f 3/11/5 7/6/5 5/8/5 1/12/5
f 8/5/6 4/13/6 2/14/6 6/7/6
f 9/15/1 10/16/1 12/17/1 11/18/1
f 11/18/2 12/17/2 16/19/2 15/20/2
f 15/20/3 16/19/3 14/21/3 13/22/3
f 13/22/4 14/21/4 10/23/4 9/24/4
f 11/25/5 15/20/5 13/22/5 9/26/5
f 16/19/6 12/27/6 10/28/6 14/21/6
f 17/29/1 18/30/1 20/31/1 19/32/1
f 19/32/2 20/31/2 24/33/2 23/34/2
f 23/34/3 24/33/3 22/35/3 21/36/3
f 21/36/4 22/35/4 18/37/4 17/38/4
f 19/39/5 23/34/5 21/36/5 17/40/5
f 24/33/6 20/41/6 18/42/6 22/35/6
f 25/43/1 26/44/1 28/45/1 27/46/1
f 27/46/2 28/45/2 32/47/2 31/48/2
f 31/48/3 32/47/3 30/49/3 29/50/3
f 29/50/4 30/49/4 26/51/4 25/52/4
f 27/53/5 31/48/5 29/50/5 25/54/5
f 32/47/6 28/55/6 26/56/6 30/49/6
f 33/57/1 34/58/1 36/59/1 35/60/1
f 35/60/2 36/59/2 40/61/2 39/62/2
f 39/62/3 40/61/3 38/63/3 37/64/3
f 37/64/4 38/63/4 34/65/4 33/66/4
f 35/67/5 39/62/5 37/64/5 33/68/5
f 40/61/6 36/69/6 34/70/6 38/63/6
f 41/71/1 42/72/1 44/73/1 43/74/1
f 43/74/2 44/73/2 48/75/2 47/76/2
f 47/76/3 48/75/3 46/77/3 45/78/3
f 45/78/4 46/77/4 42/79/4 41/80/4
f 43/81/5 47/76/5 45/78/5 41/82/5
f 48/75/6 44/83/6 42/84/6 46/77/6
f 49/85/1 50/86/1 52/87/1 51/88/1
f 51/88/2 52/87/2 56/89/2 55/90/2
f 55/90/3 56/89/3 54/91/3 53/92/3
f 53/92/4 54/91/4 50/93/4 49/94/4
f 51/95/5 55/90/5 53/92/5 49/96/5
f 56/89/6 52/97/6 50/98/6 54/91/6
f 57/99/1 58/100/1 60/101/1 59/102/1
f 59/102/2 60/101/2 64/103/2 63/104/2
f 63/104/3 64/103/3 62/105/3 61/106/3
f 61/106/4 62/105/4 58/107/4 57/108/4
f 59/109/5 63/104/5 61/106/5 57/110/5
f 64/103/6 60/111/6 58/112/6 62/105/6
f 65/113/1 66/114/1 68/115/1 67/116/1
f 67/116/2 68/115/2 72/117/2 71/118/2
f 71/118/3 72/117/3 70/119/3 69/120/3
f 69/120/4 70/119/4 66/121/4 65/122/4
f 67/123/5 71/118/5 69/120/5 65/124/5
f 72/117/6 68/125/6 66/126/6 70/119/6
