# Blender v2.82 (sub 7) OBJ File: 'TutorialLevel.blend'
# www.blender.org
mtllib W_07.mtl
o W_07_Cube.037
v -24.363785 15.979076 -19.018177
v -24.363785 39.236443 -19.018177
v -24.363785 15.979076 -20.018177
v -24.363785 39.236443 -20.018177
v -14.123488 15.979076 -19.018185
v -14.123488 39.236443 -19.018185
v -14.123489 15.979076 -20.018185
v -14.123489 39.236443 -20.018185
v -30.832169 15.979076 -19.018179
v -30.832169 39.236443 -19.018179
v -30.832170 15.979076 -20.018181
v -30.832170 39.236443 -20.018181
v -25.255985 15.979076 -19.018183
v -25.255985 39.236443 -19.018183
v -25.255987 15.979076 -20.018183
v -25.255987 39.236443 -20.018183
v -25.255667 22.936100 -19.018181
v -25.255667 39.236443 -19.018181
v -25.255669 22.936100 -20.018181
v -25.255669 39.236443 -20.018181
v -24.366329 22.936100 -19.018181
v -24.366329 39.236443 -19.018181
v -24.366329 22.936100 -20.018181
v -24.366329 39.236443 -20.018181
vt 0.375000 0.000000
vt 0.625000 0.000000
vt 0.625000 0.250000
vt 0.375000 0.250000
vt 0.625000 0.500000
vt 0.375000 0.500000
vt 0.625000 0.750000
vt 0.375000 0.750000
vt 0.625000 1.000000
vt 0.375000 1.000000
vt 0.125000 0.500000
vt 0.125000 0.750000
vt 0.875000 0.500000
vt 0.875000 0.750000
vt 0.375000 0.000000
vt 0.625000 0.000000
vt 0.625000 0.250000
vt 0.375000 0.250000
vt 0.625000 0.500000
vt 0.375000 0.500000
vt 0.625000 0.750000
vt 0.375000 0.750000
vt 0.625000 1.000000
vt 0.375000 1.000000
vt 0.125000 0.500000
vt 0.125000 0.750000
vt 0.875000 0.500000
vt 0.875000 0.750000
vt 0.375000 0.000000
vt 0.625000 0.000000
vt 0.625000 0.250000
vt 0.375000 0.250000
vt 0.625000 0.500000
vt 0.375000 0.500000
vt 0.625000 0.750000
vt 0.375000 0.750000
vt 0.625000 1.000000
vt 0.375000 1.000000
vt 0.125000 0.500000
vt 0.125000 0.750000
vt 0.875000 0.500000
vt 0.875000 0.750000
vn -1.0000 0.0000 0.0000
vn -0.0000 0.0000 -1.0000
vn 1.0000 0.0000 -0.0000
vn 0.0000 0.0000 1.0000
vn 0.0000 -1.0000 0.0000
vn 0.0000 1.0000 0.0000
usemtl None
s off
f 1/1/1 2/2/1 4/3/1 3/4/1
f 3/4/2 4/3/2 8/5/2 7/6/2
f 7/6/3 8/5/3 6/7/3 5/8/3
f 5/8/4 6/7/4 2/9/4 1/10/4
f 3/11/5 7/6/5 5/8/5 1/12/5
f 8/5/6 4/13/6 2/14/6 6/7/6
f 9/15/1 10/16/1 12/17/1 11/18/1
f 11/18/2 12/17/2 16/19/2 15/20/2
f 15/20/3 16/19/3 14/21/3 13/22/3
f 13/22/4 14/21/4 10/23/4 9/24/4
f 11/25/5 15/20/5 13/22/5 9/26/5
f 16/19/6 12/27/6 10/28/6 14/21/6
f 17/29/1 18/30/1 20/31/1 19/32/1
f 19/32/2 20/31/2 24/33/2 23/34/2
f 23/34/3 24/33/3 22/35/3 21/36/3
f 21/36/4 22/35/4 18/37/4 17/38/4
f 19/39/5 23/34/5 21/36/5 17/40/5
f 24/33/6 20/41/6 18/42/6 22/35/6
