# Blender v2.82 (sub 7) OBJ File: 'TutorialLevel.blend'
# www.blender.org
mtllib W_10.mtl
o W_10_Cube.066
v 0.984797 18.093403 3.357465
v 0.984797 39.236443 3.357465
v 0.984798 18.093403 4.357465
v 0.984798 39.236443 4.357465
v -3.936286 18.093403 3.357471
v -3.936286 39.236443 3.357471
v -3.936285 18.093403 4.357471
v -3.936285 39.236443 4.357471
v -4.936589 18.093403 -25.502361
v -4.936589 39.236443 -25.502361
v -3.936589 18.093403 -25.502361
v -3.936589 39.236443 -25.502361
v -4.936574 18.093403 4.354353
v -4.936574 39.236443 4.354353
v -3.936574 18.093403 4.354353
v -3.936574 39.236443 4.354353
vt 0.375000 0.000000
vt 0.625000 0.000000
vt 0.625000 0.250000
vt 0.375000 0.250000
vt 0.625000 0.500000
vt 0.375000 0.500000
vt 0.625000 0.750000
vt 0.375000 0.750000
vt 0.625000 1.000000
vt 0.375000 1.000000
vt 0.125000 0.500000
vt 0.125000 0.750000
vt 0.875000 0.500000
vt 0.875000 0.750000
vt 0.375000 0.000000
vt 0.625000 0.000000
vt 0.625000 0.250000
vt 0.375000 0.250000
vt 0.625000 0.500000
vt 0.375000 0.500000
vt 0.625000 0.750000
vt 0.375000 0.750000
vt 0.625000 1.000000
vt 0.375000 1.000000
vt 0.125000 0.500000
vt 0.125000 0.750000
vt 0.875000 0.500000
vt 0.875000 0.750000
vn 1.0000 0.0000 -0.0000
vn 0.0000 0.0000 1.0000
vn -1.0000 0.0000 0.0000
vn -0.0000 0.0000 -1.0000
vn 0.0000 -1.0000 0.0000
vn 0.0000 1.0000 0.0000
usemtl None
s off
f 1/1/1 2/2/1 4/3/1 3/4/1
f 3/4/2 4/3/2 8/5/2 7/6/2
f 7/6/3 8/5/3 6/7/3 5/8/3
f 5/8/4 6/7/4 2/9/4 1/10/4
f 3/11/5 7/6/5 5/8/5 1/12/5
f 8/5/6 4/13/6 2/14/6 6/7/6
f 9/15/4 10/16/4 12/17/4 11/18/4
f 11/18/1 12/17/1 16/19/1 15/20/1
f 15/20/2 16/19/2 14/21/2 13/22/2
f 13/22/3 14/21/3 10/23/3 9/24/3
f 11/25/5 15/20/5 13/22/5 9/26/5
f 16/19/6 12/27/6 10/28/6 14/21/6
