# Blender v2.82 (sub 7) OBJ File: 'TutorialLevel.blend'
# www.blender.org
mtllib F_1.mtl
o F_1_Cube.067
v -4.933673 17.095522 6.879000
v -4.933673 18.092802 6.879000
v -4.933673 17.095522 4.354859
v -4.933673 18.092802 4.354859
v 1.020565 17.095522 6.879000
v 1.020565 18.092802 6.879000
v 1.020565 17.095522 4.354859
v 1.020565 18.092802 4.354859
v -13.133818 17.095522 23.084038
v -13.133818 18.092802 23.084038
v -13.133818 17.095522 -20.541786
v -13.133818 18.092802 -20.541786
v -4.934255 17.095522 23.084038
v -4.934255 18.092802 23.084038
v -4.934255 17.095522 -20.541786
v -4.934255 18.092802 -20.541786
v -13.126764 17.095522 -10.740024
v -13.126764 18.092802 -10.740024
v -14.103693 17.095522 -10.740024
v -14.103693 18.092802 -10.740024
v -13.126764 17.095522 -15.441904
v -13.126764 18.092802 -15.441904
v -14.103693 17.095522 -15.441904
v -14.103693 18.092802 -15.441904
vt 0.375000 0.000000
vt 0.625000 0.000000
vt 0.625000 0.250000
vt 0.375000 0.250000
vt 0.625000 0.500000
vt 0.375000 0.500000
vt 0.625000 0.750000
vt 0.375000 0.750000
vt 0.625000 1.000000
vt 0.375000 1.000000
vt 0.125000 0.500000
vt 0.125000 0.750000
vt 0.875000 0.500000
vt 0.875000 0.750000
vt 0.375000 0.000000
vt 0.625000 0.000000
vt 0.625000 0.250000
vt 0.375000 0.250000
vt 0.625000 0.500000
vt 0.375000 0.500000
vt 0.625000 0.750000
vt 0.375000 0.750000
vt 0.625000 1.000000
vt 0.375000 1.000000
vt 0.125000 0.500000
vt 0.125000 0.750000
vt 0.875000 0.500000
vt 0.875000 0.750000
vt 0.375000 0.000000
vt 0.625000 0.000000
vt 0.625000 0.250000
vt 0.375000 0.250000
vt 0.625000 0.500000
vt 0.375000 0.500000
vt 0.625000 0.750000
vt 0.375000 0.750000
vt 0.625000 1.000000
vt 0.375000 1.000000
vt 0.125000 0.500000
vt 0.125000 0.750000
vt 0.875000 0.500000
vt 0.875000 0.750000
vn -1.0000 0.0000 0.0000
vn 0.0000 0.0000 -1.0000
vn 1.0000 0.0000 0.0000
vn 0.0000 0.0000 1.0000
vn 0.0000 -1.0000 0.0000
vn 0.0000 1.0000 0.0000
usemtl None
s off
f 1/1/1 2/2/1 4/3/1 3/4/1
f 3/4/2 4/3/2 8/5/2 7/6/2
f 7/6/3 8/5/3 6/7/3 5/8/3
f 5/8/4 6/7/4 2/9/4 1/10/4
f 3/11/5 7/6/5 5/8/5 1/12/5
f 8/5/6 4/13/6 2/14/6 6/7/6
f 9/15/1 10/16/1 12/17/1 11/18/1
f 11/18/2 12/17/2 16/19/2 15/20/2
f 15/20/3 16/19/3 14/21/3 13/22/3
f 13/22/4 14/21/4 10/23/4 9/24/4
f 11/25/5 15/20/5 13/22/5 9/26/5
f 16/19/6 12/27/6 10/28/6 14/21/6
f 17/29/4 18/30/4 20/31/4 19/32/4
f 19/32/1 20/31/1 24/33/1 23/34/1
f 23/34/2 24/33/2 22/35/2 21/36/2
f 21/36/3 22/35/3 18/37/3 17/38/3
f 19/39/5 23/34/5 21/36/5 17/40/5
f 24/33/6 20/41/6 18/42/6 22/35/6
